{
	"asset":{
		"version":"2.0",
		"generator":"Maxon Cinema 4D 2023.2.0 (#200000219)"
	},
	"scenes":[{
		"nodes":[0]
	}],
	"nodes":[{
		"name":"28",
		"mesh":0,
		"translation":[-0.06535676121711731,
		0.013787517324090004,
		0.029028993099927903],
		"rotation":[0.0,
		-0.7071067690849304,
		0.0,
		0.7071067690849304],
		"scale":[1.0,
		1.0,
		1.0]
	}],
	"meshes":[{
		"name":"28",
		"primitives":[{
			"attributes":{
				"POSITION":1
			},
			"indices":0
		}]
	}],
	"accessors":[{
		"bufferView":0,
		"type":"SCALAR",
		"componentType":5123,
		"count":359985,
		"byteOffset":0,
		"min":[0],
		"max":[59999]
	},
	{
		"bufferView":1,
		"type":"VEC3",
		"componentType":5126,
		"count":60000,
		"byteOffset":0,
		"min":[-0.544806182384491,
		0.0,
		-0.5462199449539185],
		"max":[0.544806182384491,
		1.7755563259124756,
		0.5462199449539185]
	}],
	"bufferViews":[{
		"buffer":0,
		"byteOffset":0,
		"byteLength":719970,
		"target":34963
	},
	{
		"buffer":0,
		"byteOffset":719972,
		"byteLength":720000,
		"target":34962
	}],
	"buffers":[{
		"uri":"data:application/octet-stream;base64,",
		"byteLength":1439972
	}]
}